<?xml version="1.0"?>
<svg xmlns="http://www.w3.org/2000/svg" viewBox="0 0 512 512" width="512px" height="512px" class=""><g><g id="outline"><path d="M105.753,443a8,8,0,0,0-.613,9.114l24,40a8,8,0,0,0,9.39,3.474l24-8A8,8,0,0,0,168,480V451.313l45.657-45.656A8,8,0,0,0,216,400V375.565l21.428,5.844-28.962,79.9a8,8,0,0,0,4.383,10.044l56,24a8,8,0,0,0,8.808-1.7l16-16a8,8,0,0,0,0-11.314l-20.5-20.5,19.452-51.81a47.477,47.477,0,0,0-22.849-60.095L232,315.056v-98.4l21-16.84a7.991,7.991,0,0,0,2.949-5.377l7.845-72.148,7.357-14.715A7.994,7.994,0,0,0,272,104V75.316A19.283,19.283,0,0,1,288,56.3V264a8,8,0,0,0,3.2,6.4L320,292V440a8,8,0,0,0,2.343,5.657L336,459.313V488a8,8,0,0,0,8,8H448a8,8,0,0,0,8-8V24a8,8,0,0,0-8-8l-160.66-.027A54.9,54.9,0,0,0,243.618,37.84l-.442.59A56.274,56.274,0,0,0,232,72.01l0,4.678L218.343,90.343A8,8,0,0,0,216,96v24.6l-10.891,44.041L200.069,168a7.994,7.994,0,0,0-1.046.065l-4.078-5.477,2.313-4.2a8,8,0,0,0-1.373-9.536l-15.918-15.8,5.819-5.82a8,8,0,0,0-2.685-13.085l-17.315-6.925a45.053,45.053,0,0,0-52.775,68.862l4.718,6.291a8,8,0,0,0,5.833,3.18c.19.013.379.02.568.02a8,8,0,0,0,5.656-2.343l2.343-2.343,21.832,21.832c-.909,1.176-1.794,2.376-2.625,3.623l-2.406,3.608A28.08,28.08,0,0,0,152,245.017V280H120a8,8,0,0,0-8,8v27.351A36.652,36.652,0,0,0,148.649,352h6.1l4.7,29.234Zm48.59-.659A8,8,0,0,0,152,448v26.234l-12.442,4.147-17.836-29.727,23.681-29.6,18.417,13.813ZM200,396.687l-24.75,24.75-19.071-14.3,17.478-17.478a8,8,0,0,0,2.241-6.928l-3.187-19.808a37.822,37.822,0,0,0,7.29,2.826l20,5.454ZM216,296v16H168V296Zm60.687,176-6.514,6.514-44.11-18.905,14.57-40.795,21.481,9.547-5.7,17.109a8,8,0,0,0,1.932,8.187ZM280,376.4a31.343,31.343,0,0,1-2.251,11.691l-10.091,25.227-21.521-9.564,9.354-24.942a8,8,0,0,0-5.386-10.527l-65.894-17.97A22.052,22.052,0,0,1,168,329.086V328h54.111L262.6,348.244A31.3,31.3,0,0,1,280,376.4ZM216,280H168V253.375a27.73,27.73,0,0,0,13.271-1.079,63.107,63.107,0,0,0,19.584-10.668L216,229.486Zm-17.55-91.689,14.824,22.854-22.427,17.98a47.182,47.182,0,0,1-14.636,7.972,12.164,12.164,0,0,1-13.968-18.288l2.405-3.608A47.092,47.092,0,0,1,177.773,202.1Zm27.37,12.794-14.056-21.67,4.8-3.2A8,8,0,0,0,219.9,171.5l10.441-42.224,16.7-.822-6.628,60.96ZM232,113.173V99.313L243.313,88H256v14.111l-5.064,10.129ZM304,260V56h16a8,8,0,0,0,6.654-12.441L319.506,32.85c-.194-.291-.4-.566-.6-.85H344V132.687l-21.657,21.656A8,8,0,0,0,320,160V272Zm45.657,190.343L336,436.687V163.313l21.657-21.656A8,8,0,0,0,360,136V32h48V85.333L385.6,115.2A8,8,0,0,0,384,120v86.111l-15.155,30.311A7.994,7.994,0,0,0,368,240V480H352V456A8,8,0,0,0,349.657,450.343ZM440,480H384V241.889l15.155-30.311A7.994,7.994,0,0,0,400,208V122.667L422.4,92.8A8,8,0,0,0,424,88V32h16ZM255.977,48.028l.446-.594a38.821,38.821,0,0,1,30.93-15.461H288A21.879,21.879,0,0,1,304.917,40H291.311a35.32,35.32,0,0,0-35.156,31.972H248A40.183,40.183,0,0,1,255.977,48.028ZM128.51,128.511a29.016,29.016,0,0,1,31.333-6.432l6.051,2.42-40.876,40.876A29.205,29.205,0,0,1,128.51,128.511Zm40.143,15.857,11.679,11.59-1.885,3.425a8,8,0,0,0,.592,8.635l6.968,9.359L168.9,188.783c-1.246.831-2.446,1.716-3.622,2.625l-21.832-21.831ZM152,336h-3.351A20.651,20.651,0,0,1,128,315.351V296h24Z" data-original="#000000" class="active-path" data-old_color="#000000" fill="#FFFFFF"/></g></g> </svg>
