<?xml version="1.0"?>
<svg xmlns="http://www.w3.org/2000/svg" viewBox="0 0 512 512" width="512px" height="512px" class=""><g><g id="outline"><path d="M151.54,220.116l9.6,16a8,8,0,1,0,13.72-8.232l-9.6-16a8,8,0,0,0-13.72,8.232Z" data-original="#000000" class="active-path" data-old_color="#000000" fill="#FFFFFF"/><path d="M88.845,155.578A8,8,0,0,0,96,160h19.471l21.669,36.116a8,8,0,1,0,13.72-8.232l-24-40A8,8,0,0,0,120,144H100.944L63.155,68.422a8,8,0,1,0-14.31,7.156Z" data-original="#000000" class="active-path" data-old_color="#000000" fill="#FFFFFF"/><path d="M209.14,356.116a8.006,8.006,0,0,0,4.33,3.473l21.47,7.157L297.422,457a8,8,0,0,0,13.156-9.107l-64-92.445a8,8,0,0,0-4.048-3.035l-21.193-7.065L208.46,323.884a8,8,0,1,0-13.72,8.232Z" data-original="#000000" class="active-path" data-old_color="#000000" fill="#FFFFFF"/><path d="M163.884,265.14a8,8,0,0,0-2.744,10.976l16,26.667a8,8,0,0,0,13.72-8.233l-16-26.666A8,8,0,0,0,163.884,265.14Z" data-original="#000000" class="active-path" data-old_color="#000000" fill="#FFFFFF"/><path d="M24,496H368a8,8,0,0,0,6.6-12.518l-4.412-6.447,16.339-5.446a8,8,0,0,0,4.625-4.011l16-32a8,8,0,0,0-.5-8.016l-9.166-13.749a8,8,0,0,0,2.1-8.343l-31.3-93.9,3.247-14.61,6.386,12.772a33.044,33.044,0,1,0,59.11-29.556l-6.722-13.445a33.669,33.669,0,0,0-25.994-18.45L394.771,210.1a20,20,0,0,0-24.9-14.38l-4.144,1.184-11.016-49.571a31.976,31.976,0,0,0-21.074-23.215L328,122.234v-6.921l7.154-7.154,4.877,2.787a8,8,0,0,0,10.625-2.508L360.218,94.1a28.062,28.062,0,0,0,1.747-28.054l-.434-.869A28.059,28.059,0,0,0,352.018,54.4l-12.526-8.351A35.889,35.889,0,0,0,319.522,40h-.537a35.93,35.93,0,0,0-29.954,16.031l-3.77,5.655-9.683-4.841a8,8,0,0,0-7.156,14.31l11.406,5.7-5.485,5.485a8,8,0,0,0,0,11.314l1.031,1.03-5.991,8.817a7.985,7.985,0,0,0-1.288,3.274L218.057,96.253,170.53,80.411c-.195-.065-.391-.122-.59-.172l-30-7.5L111.01,20.145A8,8,0,0,0,104,16H24a8,8,0,0,0-8,8V488A8,8,0,0,0,24,496ZM308,386.133,330.043,372.9,352,425.6v20.51l-1.253,2.506Zm-36.582-53.466-.746-2.984L296,339.816V341.2l-10.1,12.647ZM254.06,159.761l23.619,5.905-4.4,13.2L229.578,208H216a7.994,7.994,0,0,0-3.578.845l-6.3,3.149-6.125-7V184a8.005,8.005,0,0,0-.99-3.855l-30.064-54.662,34.947,17.657a7.965,7.965,0,0,0,2.259.745L248,151.043V152A8,8,0,0,0,254.06,159.761ZM208,228.944,217.889,224H232a7.993,7.993,0,0,0,4.438-1.344L282.422,192h24.634l-7,14a12.031,12.031,0,0,1-5.86,5.6L230.3,240H208Zm99.126,98.09-.041-.016-34.741-13.9A25.878,25.878,0,0,1,256,288.981v-1.343a25.968,25.968,0,0,1,9.08-19.741l33.2-28.458,3.6,23.371-19.534,19.533a8,8,0,0,0,3.127,13.246l22.609,7.537,3.982,25.883Zm-2.232-44.614.45,2.929-2.534-.845ZM276.64,236.914l-21.973,18.835a42.109,42.109,0,0,0-5.383,5.57l-7.715-8.817Zm33.612,112.077a8,8,0,0,0,1.463-2.889l8.593,3.437,3.515,8.438L298.944,372.9l-3.592-5.249Zm68.075,108.467-16.166,5.389-.427-.427,5.421-10.842A7.994,7.994,0,0,0,368,448V428.944l15.261-7.631,7.508,11.262Zm3.889-53.511-18.128,9.065-36.329-87.191L312.95,229.562l12.361-3.9a20,20,0,0,0,2,6.852l9.141,18.282,4.644,18.576a19.971,19.971,0,0,0,16.854,14.98l-5.76,25.917a8,8,0,0,0,.221,4.265Zm7.327-148.787a4.019,4.019,0,0,1-2.615,4.765l-25.164,8.388a4,4,0,0,1-5.146-2.825l-3.06-12.241,32.776-10.926ZM416,273.889l6.723,13.444a17.045,17.045,0,0,1-30.49,15.246l-11.81-23.621,11.565-3.854a19.986,19.986,0,0,0,11.832-10.7A17.774,17.774,0,0,1,416,273.889ZM374.269,211.1a3.962,3.962,0,0,1,1.1-.158,4.02,4.02,0,0,1,2,.54,3.973,3.973,0,0,1,1.88,2.494l3.194,12.776-34.39,11.464-6.43-12.862h0a3.993,3.993,0,0,1,2.413-5.61l.164-.052Zm-59.416,1.081L324.944,192h23.305l2.068,9.3ZM339.094,150.8l5.6,25.2H331.1l4.49-13.47a8,8,0,1,0-15.178-5.06L314.234,176H291.1l4.49-13.47A8,8,0,0,0,296,160V148.944l24.614-12.307,7.965,2.655A15.9,15.9,0,0,1,339.094,150.8Zm-24.751-44.456A8,8,0,0,0,312,112v11.056l-16,8V120a8,8,0,0,0-2.343-5.657l-7.321-7.321,5.991-8.816a8,8,0,0,0-.961-10.153L291.313,88l3.114-3.113,26.328,15.044ZM318.985,56h.537a19.939,19.939,0,0,1,11.094,3.359l12.527,8.351a12.024,12.024,0,0,1,4.077,4.618l.434.868a12.029,12.029,0,0,1-.748,12.024l-4.241,6.361a8.009,8.009,0,0,0-2.549-2.441L301.6,66.028l.748-1.122A19.962,19.962,0,0,1,318.985,56ZM264,122.246l16,4v23.508l-16-4Zm-120-32,21.761,5.441,47.709,15.9a8,8,0,0,0,.961.256l33.466,6.693-.251,16.212-37.611-6.433L163.608,104.86A7.993,7.993,0,0,0,160,104H144ZM99.27,32,128,84.237V112a8,8,0,0,0,8,8h11.67L184,186.055V208a8,8,0,0,0,1.979,5.268l6.662,7.613A7.978,7.978,0,0,0,192,224v24a8,8,0,0,0,8,8h23.37l17.338,19.814.483,1.937A42.067,42.067,0,0,0,240,287.638v1.343a41.827,41.827,0,0,0,11.176,28.577c.034.206.07.412.121.618l4.942,19.764a8,8,0,0,0,1.158,2.578L352.833,480H219.845l-29.6-37a8,8,0,0,0-5.255-2.94l-60.775-7.6L94.247,395a8,8,0,0,0-12.494,10l32,40a8,8,0,0,0,5.255,2.94l60.775,7.6L199.355,480H32V187.09l25.283,39.075a8,8,0,0,0,13.434-8.693L32,157.637V32Z" data-original="#000000" class="active-path" data-old_color="#000000" fill="#FFFFFF"/><path d="M158.315,392.8a8,8,0,1,0-12.63,9.823l8,10.286a8,8,0,1,0,12.63-9.824Z" data-original="#000000" class="active-path" data-old_color="#000000" fill="#FFFFFF"/><path d="M112.562,333.979l7.283-36.41a8,8,0,0,0-1.128-5.915l-31.059-48a8,8,0,1,0-13.433,8.692l29.293,45.272-7.363,36.813a8,8,0,0,0,1.53,6.481l24.889,32a8,8,0,0,0,12.63-9.824Z" data-original="#000000" class="active-path" data-old_color="#000000" fill="#FFFFFF"/><path d="M477.174,138.826A31.751,31.751,0,0,0,463.74,124.1,32.258,32.258,0,0,0,464,120a31.789,31.789,0,0,0-18.826-29.174,32.018,32.018,0,0,0-58.355.016A32.008,32.008,0,0,0,368,120a31.92,31.92,0,0,0,1.823,10.666A8,8,0,0,0,377.366,136h42.919c-.527.92-1.027,1.861-1.466,2.842A32.008,32.008,0,0,0,400,168a31.92,31.92,0,0,0,1.823,10.666A8,8,0,0,0,409.366,184h77.268a8,8,0,0,0,7.543-5.334,32.038,32.038,0,0,0-17-39.84Zm-87.839-30.75a16.076,16.076,0,0,1,6.017-3.388,8,8,0,0,0,5.336-5.337,16,16,0,0,1,30.624,0,8,8,0,0,0,5.337,5.337A16.106,16.106,0,0,1,448,120H384A16.02,16.02,0,0,1,389.335,108.076ZM416,168a16.018,16.018,0,0,1,11.352-15.312,8,8,0,0,0,5.336-5.337,16,16,0,0,1,30.624,0,8,8,0,0,0,5.337,5.337A16.106,16.106,0,0,1,480,168Z" data-original="#000000" class="active-path" data-old_color="#000000" fill="#FFFFFF"/><path d="M168,56a8,8,0,0,0,8,8h16a8,8,0,0,0,0-16H176A8,8,0,0,0,168,56Z" data-original="#000000" class="active-path" data-old_color="#000000" fill="#FFFFFF"/><path d="M240,32a8,8,0,0,0,0-16H208a8,8,0,0,0,0,16Z" data-original="#000000" class="active-path" data-old_color="#000000" fill="#FFFFFF"/><path d="M440,232a8,8,0,0,0,0-16H424a8,8,0,0,0,0,16Z" data-original="#000000" class="active-path" data-old_color="#000000" fill="#FFFFFF"/><path d="M488,248H448a8,8,0,0,0,0,16h40a8,8,0,0,0,0-16Z" data-original="#000000" class="active-path" data-old_color="#000000" fill="#FFFFFF"/><path d="M176,16H160a8,8,0,0,0,0,16h16a8,8,0,0,0,0-16Z" data-original="#000000" class="active-path" data-old_color="#000000" fill="#FFFFFF"/><path d="M488,216H472a8,8,0,0,0,0,16h16a8,8,0,0,0,0-16Z" data-original="#000000" class="active-path" data-old_color="#000000" fill="#FFFFFF"/></g></g> </svg>
